<svg width="800" height="800" viewBox="0 0 800 800" fill="none" xmlns="http://www.w3.org/2000/svg">
<g clip-path="url(#clip0_216_157)">
<path d="M785.301 589.703L478.897 109.597C461.618 82.5186 432.123 66.3516 400 66.3516C367.875 66.3516 338.38 82.5186 321.106 109.597L14.7003 589.701C-3.69057 618.521 -4.91062 655.053 11.5266 685.045C27.9639 715.024 59.4125 733.649 93.5997 733.649H706.404C740.591 733.649 772.04 715.026 788.482 685.037C804.912 655.053 803.692 618.524 785.301 589.703ZM400 652.834C371.823 652.834 348.985 629.993 348.985 601.819C348.985 573.642 371.826 550.8 400 550.8C428.178 550.8 451.016 573.642 451.016 601.819C451.016 629.993 428.175 652.834 400 652.834ZM470.712 298.321L445.585 467.5C441.886 492.403 418.7 509.591 393.8 505.893C373.682 502.904 358.598 487.131 355.497 468.076L328.21 299.233C321.858 259.921 348.575 222.902 387.887 216.549C427.199 210.197 464.218 236.915 470.571 276.227C471.765 283.629 471.724 291.271 470.712 298.321Z" fill="#FFB02E"/>
</g>
<defs>
<clipPath id="clip0_216_157">
<rect width="800" height="800" fill="white"/>
</clipPath>
</defs>
</svg>
