<svg width="21" height="21" viewBox="0 0 21 21" fill="none" xmlns="http://www.w3.org/2000/svg">
<path d="M10.7148 0.865234C5.19198 0.865234 0.714844 5.34237 0.714844 10.8652C0.714844 16.3881 5.19198 20.8652 10.7148 20.8652C16.2377 20.8652 20.7148 16.3881 20.7148 10.8652C20.7148 5.34237 16.2377 0.865234 10.7148 0.865234ZM10.7148 2.80072C15.1718 2.80072 18.7794 6.40761 18.7794 10.8652C18.7794 15.3222 15.1725 18.9298 10.7148 18.9298C6.25791 18.9298 2.65033 15.3229 2.65033 10.8652C2.65033 6.4083 6.25722 2.80072 10.7148 2.80072ZM16.3682 8.05342L15.4595 7.13737C15.2713 6.94765 14.965 6.9464 14.7752 7.13463L9.07557 12.7885L6.6646 10.358C6.47642 10.1683 6.17005 10.167 5.98033 10.3552L5.06424 11.2639C4.87452 11.4521 4.87327 11.7585 5.0615 11.9482L8.72202 15.6384C8.91021 15.8281 9.21658 15.8293 9.40629 15.6411L16.3655 8.73773C16.5552 8.54951 16.5564 8.24314 16.3682 8.05342Z" fill="#34A853"/>
</svg>
