<svg width="25" height="25" viewBox="0 0 25 25" fill="none" xmlns="http://www.w3.org/2000/svg">
<rect x="0.5" y="0.5" width="24" height="24" rx="1.5" fill="#262626" stroke="white"/>
<path d="M9.75852 17V8.27273H13.2528C13.8949 8.27273 14.4304 8.3679 14.8594 8.55824C15.2884 8.74858 15.6108 9.01278 15.8267 9.35085C16.0426 9.68608 16.1506 10.0724 16.1506 10.5099C16.1506 10.8509 16.0824 11.1506 15.946 11.4091C15.8097 11.6648 15.6222 11.875 15.3835 12.0398C15.1477 12.2017 14.8778 12.3168 14.5739 12.3849V12.4702C14.9063 12.4844 15.2173 12.5781 15.5071 12.7514C15.7997 12.9247 16.0369 13.1676 16.2188 13.4801C16.4006 13.7898 16.4915 14.1591 16.4915 14.5881C16.4915 15.0511 16.3764 15.4645 16.1463 15.8281C15.919 16.1889 15.5824 16.4744 15.1364 16.6847C14.6903 16.8949 14.1406 17 13.4872 17H9.75852ZM11.6037 15.4915H13.108C13.6222 15.4915 13.9972 15.3935 14.233 15.1974C14.4688 14.9986 14.5866 14.7344 14.5866 14.4048C14.5866 14.1634 14.5284 13.9503 14.4119 13.7656C14.2955 13.581 14.1293 13.4361 13.9134 13.331C13.7003 13.2259 13.446 13.1733 13.1506 13.1733H11.6037V15.4915ZM11.6037 11.9247H12.9716C13.2244 11.9247 13.4489 11.8807 13.6449 11.7926C13.8438 11.7017 14 11.5739 14.1136 11.4091C14.2301 11.2443 14.2884 11.0469 14.2884 10.8168C14.2884 10.5014 14.1761 10.2472 13.9517 10.054C13.7301 9.8608 13.4148 9.7642 13.0057 9.7642H11.6037V11.9247Z" fill="white"/>
</svg>
