<svg width="28" height="29" viewBox="0 0 28 29" fill="none" xmlns="http://www.w3.org/2000/svg">
<mask id="mask0_7_35" style="mask-type:luminance" maskUnits="userSpaceOnUse" x="-1" y="0" width="29" height="29">
<path d="M27.1459 11.5985H14.0477V17.0294H21.5871C20.8843 20.4796 17.9452 22.4603 14.0477 22.4603C9.44742 22.4603 5.74161 18.7545 5.74161 14.1542C5.74161 9.55386 9.44742 5.84805 14.0477 5.84805C16.0284 5.84805 17.8174 6.55088 19.2231 7.70096L23.3123 3.61179C20.8204 1.43942 17.6258 0.0976562 14.0477 0.0976562C6.25276 0.0976562 -0.00878906 6.3592 -0.00878906 14.1542C-0.00878906 21.9492 6.25276 28.2107 14.0477 28.2107C21.076 28.2107 27.4653 23.0992 27.4653 14.1542C27.4653 13.3236 27.3375 12.4291 27.1459 11.5985Z" fill="white"/>
</mask>
<g mask="url(#mask0_7_35)">
<path d="M-1.28711 22.4599V5.84766L9.57475 14.1538L-1.28711 22.4599Z" fill="white"/>
</g>
<mask id="mask1_7_35" style="mask-type:luminance" maskUnits="userSpaceOnUse" x="-1" y="0" width="29" height="29">
<path d="M27.1459 11.5985H14.0477V17.0294H21.5871C20.8843 20.4796 17.9452 22.4603 14.0477 22.4603C9.44742 22.4603 5.74161 18.7545 5.74161 14.1542C5.74161 9.55386 9.44742 5.84805 14.0477 5.84805C16.0284 5.84805 17.8174 6.55088 19.2231 7.70096L23.3123 3.61179C20.8204 1.43942 17.6258 0.0976562 14.0477 0.0976562C6.25276 0.0976562 -0.00878906 6.3592 -0.00878906 14.1542C-0.00878906 21.9492 6.25276 28.2107 14.0477 28.2107C21.076 28.2107 27.4653 23.0992 27.4653 14.1542C27.4653 13.3236 27.3375 12.4291 27.1459 11.5985Z" fill="white"/>
</mask>
<g mask="url(#mask1_7_35)">
<path d="M-1.28711 5.84858L9.57475 14.1547L14.0473 10.2572L29.3817 7.76538V-1.17969H-1.28711V5.84858Z" fill="white"/>
</g>
<mask id="mask2_7_35" style="mask-type:luminance" maskUnits="userSpaceOnUse" x="-1" y="0" width="29" height="29">
<path d="M27.1459 11.5985H14.0477V17.0294H21.5871C20.8843 20.4796 17.9452 22.4603 14.0477 22.4603C9.44742 22.4603 5.74161 18.7545 5.74161 14.1542C5.74161 9.55386 9.44742 5.84805 14.0477 5.84805C16.0284 5.84805 17.8174 6.55088 19.2231 7.70096L23.3123 3.61179C20.8204 1.43942 17.6258 0.0976562 14.0477 0.0976562C6.25276 0.0976562 -0.00878906 6.3592 -0.00878906 14.1542C-0.00878906 21.9492 6.25276 28.2107 14.0477 28.2107C21.076 28.2107 27.4653 23.0992 27.4653 14.1542C27.4653 13.3236 27.3375 12.4291 27.1459 11.5985Z" fill="white"/>
</mask>
<g mask="url(#mask2_7_35)">
<path d="M-1.28711 22.4608L17.8809 7.76538L22.9285 8.40431L29.3817 -1.17969V29.4891H-1.28711V22.4608Z" fill="white"/>
</g>
<mask id="mask3_7_35" style="mask-type:luminance" maskUnits="userSpaceOnUse" x="-1" y="0" width="29" height="29">
<path d="M27.1459 11.5985H14.0477V17.0294H21.5871C20.8843 20.4796 17.9452 22.4603 14.0477 22.4603C9.44742 22.4603 5.74161 18.7545 5.74161 14.1542C5.74161 9.55386 9.44742 5.84805 14.0477 5.84805C16.0284 5.84805 17.8174 6.55088 19.2231 7.70096L23.3123 3.61179C20.8204 1.43942 17.6258 0.0976562 14.0477 0.0976562C6.25276 0.0976562 -0.00878906 6.3592 -0.00878906 14.1542C-0.00878906 21.9492 6.25276 28.2107 14.0477 28.2107C21.076 28.2107 27.4653 23.0992 27.4653 14.1542C27.4653 13.3236 27.3375 12.4291 27.1459 11.5985Z" fill="white"/>
</mask>
<g mask="url(#mask3_7_35)">
<path d="M29.3822 29.4882L9.57526 14.1538L7.01953 12.237L29.3822 5.84766V29.4882Z" fill="white"/>
</g>
</svg>
