<svg width="248" height="52" viewBox="0 0 248 52" fill="none" xmlns="http://www.w3.org/2000/svg">
<path d="M5.97238 4.96631H6.11708C8.40329 1.84086 11.384 0.104492 15.4211 0.104492C24.4502 0.104492 26.5338 6.63033 26.5338 14.2703V33.6453H20.9775V15.2398C20.9775 9.95836 20.5578 5.24124 14.1044 5.24124C6.46435 5.24124 5.97238 12.3314 5.97238 18.1627V33.6597H0.416016V1.00161H5.97238V4.96631Z" fill="white"/>
<path d="M34.1738 17.3958C34.1738 7.81684 41.7415 0.104492 51.3349 0.104492C60.9283 0.104492 68.496 7.81684 68.496 17.3958C68.496 26.9747 60.856 34.5569 51.3349 34.5569C41.8138 34.5569 34.1738 26.9892 34.1738 17.3958ZM39.7302 17.3379C39.7302 24.0084 44.4473 29.4201 51.3349 29.4201C58.2225 29.4201 62.9396 24.0084 62.9396 17.3379C62.9396 10.6674 58.2225 5.25571 51.3349 5.25571C44.4473 5.25571 39.7302 10.7397 39.7302 17.3379Z" fill="white"/>
<path d="M81.403 5.66086H81.5477C84.2536 2.04343 88.2906 0.104492 92.8052 0.104492C102.384 0.104492 108.432 8.36669 108.432 17.3958C108.432 26.4249 102.529 34.5569 92.7328 34.5569C88.2906 34.5569 84.1957 32.6179 81.5477 29.0728H81.403V51.9928H75.8467V1.00161H81.403V5.66086ZM81.1281 16.9906C81.1281 23.3862 84.8758 29.4201 91.8212 29.4201C98.7667 29.4201 102.731 23.6612 102.731 17.063C102.731 10.4648 98.6365 5.25571 91.7633 5.25571C85.3099 5.25571 81.1426 10.8844 81.1426 16.9906H81.1281Z" fill="white"/>
<path d="M121.47 4.54669H121.614C123.553 1.97108 125.232 0.104492 128.835 0.104492C130.716 0.104492 132.235 0.726689 133.841 1.63828L131.208 6.70268C130.094 5.93578 129.327 5.24124 127.88 5.24124C121.773 5.24124 121.484 13.0838 121.484 17.3234V33.6453H115.928V1.00161H121.484V4.54669H121.47Z" fill="white"/>
<path d="M142.248 18.51C142.32 24.5583 146.618 29.4201 152.941 29.4201C157.658 29.4201 160.726 26.5696 162.867 22.6772L167.584 25.3831C164.459 31.2143 159.177 34.5569 152.507 34.5569C142.783 34.5569 136.532 27.1194 136.532 17.7431C136.532 8.36669 142.161 0.104492 152.377 0.104492C162.592 0.104492 168.423 8.78631 167.874 18.51H142.248ZM162.042 13.7928C161.275 9.07571 157.325 5.25571 152.463 5.25571C147.602 5.25571 143.232 9.07571 142.523 13.7928H162.042Z" fill="white"/>
<path d="M204.96 32.0544C204.96 37.2635 204.96 41.778 201.632 46.09C198.579 49.9823 193.847 51.8489 188.985 51.8489C179.884 51.8489 173.155 46.09 172.938 36.8439H178.495C178.567 42.8922 182.937 46.7122 188.913 46.7122C197.522 46.7122 199.403 40.3889 199.403 33.0239V29.1315H199.259C196.625 32.5319 192.313 34.5432 187.929 34.5432C178.408 34.5432 172.374 26.5559 172.374 17.4545C172.374 8.35302 178.48 0.0908203 188.146 0.0908203C192.661 0.0908203 196.625 2.10211 199.259 5.64719H199.403V1.00241H204.96V32.0544ZM178.075 16.9914C178.075 23.387 181.823 29.4209 188.768 29.4209C195.714 29.4209 199.678 23.662 199.678 17.0638C199.678 10.4656 195.583 5.2565 188.71 5.2565C182.257 5.2565 178.09 10.8852 178.09 16.9914H178.075Z" fill="white"/>
<path d="M212.875 17.3958C212.875 7.81684 220.443 0.104492 230.036 0.104492C239.629 0.104492 247.197 7.81684 247.197 17.3958C247.197 26.9747 239.557 34.5569 230.036 34.5569C220.515 34.5569 212.875 26.9892 212.875 17.3958ZM218.431 17.3379C218.431 24.0084 223.148 29.4201 230.036 29.4201C236.924 29.4201 241.641 24.0084 241.641 17.3379C241.641 10.6674 236.924 5.25571 230.036 5.25571C223.148 5.25571 218.431 10.7397 218.431 17.3379Z" fill="white"/>
</svg>
