<svg width="46" height="46" viewBox="0 0 46 46" fill="none" xmlns="http://www.w3.org/2000/svg">
<path d="M22.944 45.9307C35.3704 45.9307 45.444 35.8571 45.444 23.4307C45.444 11.0043 35.3704 0.930664 22.944 0.930664C10.5176 0.930664 0.44397 11.0043 0.44397 23.4307C0.44397 35.8571 10.5176 45.9307 22.944 45.9307Z" fill="#26A17B"/>
<path fill-rule="evenodd" clip-rule="evenodd" d="M25.6468 25.4079V25.4051C25.4921 25.4163 24.6947 25.4641 22.9158 25.4641C21.4955 25.4641 20.4957 25.4219 20.1441 25.4051V25.4093C14.6766 25.1688 10.5957 24.2168 10.5957 23.0777C10.5957 21.9401 14.6766 20.988 20.1441 20.7433V24.4615C20.5013 24.4868 21.5251 24.5472 22.9398 24.5472C24.6371 24.5472 25.4879 24.4769 25.6468 24.4629V20.7462C31.103 20.9894 35.1741 21.9415 35.1741 23.0777C35.1741 24.2168 31.103 25.166 25.6468 25.4079ZM25.6468 20.3594V17.0322H33.2602V11.9585H12.5307V17.0322H20.1441V20.358C13.9566 20.6421 9.30334 21.8683 9.30334 23.3365C9.30334 24.8046 13.9566 26.0294 20.1441 26.3149V36.9771H25.6468V26.3121C31.8244 26.028 36.4665 24.8032 36.4665 23.3365C36.4665 21.8697 31.8244 20.6449 25.6468 20.3594Z" fill="white"/>
</svg>
